<svg height="17" viewBox="0 0 17 17" width="17" xmlns="http://www.w3.org/2000/svg"><path d="m8.5 0c4.6944204 0 8.5 3.80557963 8.5 8.5-.0050451 4.692329-3.807671 8.4949549-8.5 8.5-4.69442037 0-8.5-3.8055796-8.5-8.5 0-4.69442037 3.80557963-8.5 8.5-8.5zm2.4707667 5.7932319c-.2312053-.03347902-.4627088.0589317-.6073052.24242195l-2.7219615 3.45426923-1.01215385-1.34561539c-.21792944-.2888874-.62878566-.34641019-.91767306-.12848076-.28888741.21792944-.34641021.62878566-.12848078.91767307l1.52803846 2.0184231c.12167686.1622719.31177061.2588888.51457692.2615384.20651497-.0002783.39536846-.0920553.51915385-.2491153l3.24569226-4.11923082c.1445964-.18349023.1803181-.43018345.0937091-.64715271-.086609-.21696925-.2823908-.37125176-.5135962-.40473077z" fill="#40982e"/></svg>