<svg height="17" viewBox="0 0 17 17" width="17" xmlns="http://www.w3.org/2000/svg"><path d="m8.5 0c4.6944204 0 8.5 3.80557963 8.5 8.5 0 4.6944204-3.8055796 8.5-8.5 8.5-4.69442037 0-8.5-3.8055796-8.5-8.5 0-4.69442037 3.80557963-8.5 8.5-8.5zm0 11c-.41421356 0-.75.3357864-.75.75s.33578644.75.75.75.75-.3357864.75-.75-.33578644-.75-.75-.75zm0-7c-.41421356 0-.75.33578644-.75.75v4.5c0 .41421356.33578644.75.75.75s.75-.33578644.75-.75v-4.5c0-.41421356-.33578644-.75-.75-.75z" fill="#c41212" fill-rule="evenodd"/></svg>