<svg height="38" viewBox="0 0 38 38" width="38" xmlns="http://www.w3.org/2000/svg"><g fill="none" fill-rule="evenodd"><circle cx="19" cy="19" fill="#262262" r="19"/><path d="m18 0c9.9411255 0 18 8.0588745 18 18-.0106838 9.9366968-8.0633032 17.9893162-18 18-9.9411255 0-18-8.0588745-18-18s8.0588745-18 18-18zm5.2322119 12.2680205c-.4896114-.0708968-.979854.1247965-1.2860581.5133641l-5.7641538 7.3149231-2.1433846-2.8495385c-.4614977-.6117615-1.3315461-.7335745-1.9433077-.2720769-.6117616.4614977-.7335745 1.3315461-.2720769 1.9433077l3.2358461 4.2743077c.2576687.3436346.6602201.548235 1.0896923.5538461h.0138462c.4234797-.0005893.8234047-.1949407 1.0855384-.5275384l6.8732308-8.7230769c.3062041-.3885676.3818501-.9109768.1984427-1.3704411-.1834073-.4594643-.5980039-.7861802-1.0876154-.8570769z" fill="#fff" fill-rule="nonzero" transform="translate(1 1)"/></g></svg>