<svg height="17" viewBox="0 0 17 17" width="17" xmlns="http://www.w3.org/2000/svg"><path d="m17.5 9c4.6944204 0 8.5 3.8055796 8.5 8.5-.0054047 4.6921798-3.8078202 8.4945953-8.5 8.5-4.6944204 0-8.5-3.8055796-8.5-8.5s3.8055796-8.5 8.5-8.5zm0 1.3076923c-3.9722019 0-7.1923077 3.2201058-7.1923077 7.1923077s3.2201058 7.1923077 7.1923077 7.1923077 7.1923077-3.2201058 7.1923077-7.1923077c-.0043243-3.9704093-3.2218984-7.1879834-7.1923077-7.1923077zm-.0085 3.4882692c.3611093 0 .6538462.2927369.6538462.6538462l-.0003462 2.3961923 2.3960385.0001538c.3611092 0 .6538461.2927369.6538461.6538462s-.2927369.6538462-.6538461.6538462l-2.3960385-.0008462.0003462 2.3971923c0 .3611093-.2927369.6538462-.6538462.6538462s-.6538462-.2927369-.6538462-.6538462l-.0006538-2.3971923-2.3950385.0008462c-.3611092 0-.6538461-.2927369-.6538461-.6538462s.2927369-.6538462.6538461-.6538462l2.3950385-.0001538.0006538-2.3961923c0-.3611093.2927369-.6538462.6538462-.6538462z" fill="#fff" transform="translate(-9 -9)"/></svg>