<svg height="30.666667" viewBox="0 0 31.5028327 30.6666667" width="31.502833" xmlns="http://www.w3.org/2000/svg"><g fill="none" fill-rule="evenodd" stroke="#262262" stroke-linejoin="round" stroke-width="1.5" transform="translate(.751417 .75)"><path d="m15.3023824 7.02383178c-1.2934522-.12417066-2.5276513.55512198-3.0835211 1.69714366-.5558697 1.14202167-.3134852 2.50038916.6055733 3.39374306s2.3165103 1.1289594 3.4913914.5886364c1.1748811-.5403231 1.8737191-1.7400037 1.7459757-2.99728013-.1465401-1.4181808-1.3004331-2.53980136-2.7594193-2.68224299zm7.4081275 2.97616822c-.0019651.325073-.0265386.6496449-.0735525.9714953l2.1734033 1.6570094c.1954326.1574677.2452312.4291326.1177801.6425233l-2.056104 3.457944c-.1289045.211277-.3954808.3017917-.6316858.2144859l-2.1585005-.8448598c-.2417863-.0935766-.515759-.0628553-.7292751.0817757-.3294239.2205035-.6755853.4163929-1.0355034.5859813-.2297916.1085629-.3888038.3213086-.4240083.5672898l-.3235347 2.2378504c-.0438226.2437343-.2589343.4232666-.5134251.4285047h-4.1122078c-.2499951-.0042042-.4635316-.1764301-.5139058-.414486l-.323054-2.2345794c-.0368459-.2487196-.1992345-.4630406-.4326615-.5710281-.3594876-.1686709-.7044794-.365095-1.0316575-.5873831-.2128048-.1439229-.485879-.1739624-.72639071-.0799066l-2.15801975.8443925c-.23608894.0873888-.50263055-.002917-.63168589-.2140186l-2.05610391-3.457944c-.12765984-.2133548-.07783572-.4851593.11778009-.6425233l1.83688872-1.4018692c.20445976-.1577641.31298813-.405321.28844105-.6579439-.01730646-.1948598-.02788264-.3892524-.02788264-.58411217 0-.19485981.01009544-.3864486.02788264-.5771028.02186012-.25105636-.08783531-.49593055-.29180619-.65140187l-1.83592725-1.40186916c-.192336-.1580873-.24035121-.42748696-.11393421-.63925234l2.05610391-3.45794392c.12890457-.21127704.39548083-.30179175.63168589-.21448598l2.15850048.84485981c.24178627.09357665.51575897.06285532.72927507-.0817757.3294239-.22050349.6755853-.41639286 1.0355034-.58598131.2297916-.10856288.3888038-.32130859.4240083-.56728972l.3235347-2.23785047c.0438226-.24373429.2589343-.42326652.5134251-.42850467h4.1122078c.2499951.00420418.4635316.17643008.5139058.41448598l.323054 2.23457944c.0368459.24871962.1992345.46304058.4326615.57102804.3594876.16867097.7044794.36509506 1.0316575.58738318.2128048.14392283.485879.17396233.7263907.07990654l2.1580198-.84439253c.2360889-.08738877.5026305.00291701.6316858.2140187l2.056104 3.45794392c.1276598.21335483.0778357.48515936-.1177801.64252337l-1.8368888 1.40186915c-.2053585.15725759-.3148279.4048972-.2908447.65794393.0158643.19345794.0264405.38785047.0264405.58271028z" stroke-linecap="round"/><path d="m5.39425303 18.3539194-5.39425303 6.6460806h30l-5.394253-6.6666667" stroke-linecap="round"/><path d="m0 29.1666667h30z"/></g></svg>