<svg height="86" viewBox="0 0 84 86" width="84" xmlns="http://www.w3.org/2000/svg"><path d="m76.0428138 34.8887667c1.5152352-2.7677667 2.3124299-5.8666334 2.3124299-9.0443334 0-3.2522333-.8523198-6.4686333-2.4664977-9.3023333-4.8170912-8.45523333-15.2343337-11.62863333-23.784388-7.5078-.7703388-1.30003333-1.6933319-2.50116667-2.7590851-3.5819-3.465818-3.51596667-8.0836106-5.4524-12.9996444-5.4524-9.6257017 0-17.5396963 7.5594-18.2987274 17.1541333-6.4270287.1189667-12.37771951 3.6578667-15.58911366 9.3037667-4.82415857 8.4581-2.31525688 19.1995 5.49979518 24.6533333-1.51664873 2.7677667-2.31242994 5.8666334-2.31242994 9.0457667 0 3.2522333.85231984 6.4686333 2.46649771 9.3023333 3.40079861 5.9712667 9.59743241 9.3166667 15.95520121 9.3166667 2.6460079 0 5.3216985-.5848 7.8348406-1.7959667.7689254 1.2957334 1.6905051 2.4925667 2.7520178 3.5704334 3.465818 3.5131 8.0836106 5.4495333 12.9996444 5.4495333 9.6257017 0 17.5396964-7.5594 18.2987275-17.1541333 6.4270287-.1189667 12.3777194-3.6578667 15.5891136-9.3037667 4.825572-8.4581 2.3166703-19.1995-5.4983817-24.6533333zm-2.6021905-16.9147667c1.3654079 2.3994 2.0876889 5.1198667 2.0876889 7.869 0 2.6445-.6558481 5.2230667-1.896871 7.5350333l-19.617491-11.4867333c-.4367609-.2551333-.9752913-.2551333-1.4120522 0l-20.5136283 11.9812333.0155481-9.9100666 20.0599058-11.7461667c.0226154-.0114667.0452309-.0243667.0664329-.0358333 7.4108008-4.3243667 16.9290791-1.7243 21.2104668 5.7935333zm-21.5242562 30.8424667-9.9295968 5.7992666-9.921116-5.8265.018375-11.6071333 9.9295968-5.7992667 9.921116 5.8265zm-31.1188617-30.2089334c.0127212-8.6788333 6.9867611-15.74086663 15.5481231-15.74086663 4.1612431 0 8.0680624 1.6383 11.0010039 4.61103333.8721083.88436667 1.6297259 1.86333333 2.267199 2.9211333l-19.6287987 11.4924667c-.4367609.2565667-.7067329.7281333-.7067329 1.2384l-.0381636 24.0011667-8.4426308-4.9564667zm-15.89300877 9.2851334c2.69547916-4.7414667 7.67653247-7.7099 13.06607727-7.8561v22.9634333c0 .5102667.2685585.9847.7053194 1.2398333l20.482532 12.0271-8.4666597 4.945-20.0019537-11.7132c-.0353366-.0258-.0720868-.0487333-.1102503-.0716666-7.41645476-4.3573334-9.96352002-14.0165667-5.67506497-21.5344zm5.65386297 40.1333333c-1.36540792-2.3994-2.08768891-5.1198667-2.08768891-7.869 0-2.6445.6558481-5.2230667 1.89687101-7.5350333l19.617491 11.4867333c.2190872.1275667.4622033.1920667.7067329.1920667.2431161 0 .4876456-.0645.7053194-.1920667l20.5136282-11.9812333-.0155481 9.9100666-20.0599058 11.7461667c-.0226154.0114667-.0452309.0243667-.0664329.0358333-7.4108008 4.3229334-16.9276656 1.7228667-21.2104668-5.7935333zm52.6431179-.6335333c-.0127212 8.6788333-6.9867611 15.7408666-15.5481231 15.7408666-4.1612431 0-8.0680624-1.6383-11.0010038-4.6110333-.8721084-.8843667-1.629726-1.8633333-2.2671991-2.9211333l19.6287987-11.4924667c.436761-.2565667.7067329-.7281333.7067329-1.2384l.0381636-24.0011667 8.4426308 4.9564667zm15.8930088-9.2851334c-2.6954792 4.7414667-7.6765324 7.7099-13.0660773 7.8561v-22.9634333c0-.5102667-.2685585-.9847-.7053194-1.2398333l-20.482532-12.0285334 8.4666598-4.9435666 20.0019536 11.7132c.0353367.0258.0720868.0487333.1102504.0716666 7.4164547 4.3573334 9.9635199 14.0165667 5.6750649 21.5344z" fill="#fff"/></svg>