<svg height="38" viewBox="0 0 38 38" width="38" xmlns="http://www.w3.org/2000/svg"><g fill="none" fill-rule="evenodd"><circle cx="19" cy="19" fill="#707681" r="19"/><path d="m18 0c9.9411255 0 18 8.0588745 18 18-.0106838 9.9366968-8.0633032 17.9893162-18 18-9.9411255 0-18-8.0588745-18-18s8.0588745-18 18-18zm6.6118566 8.66911765c-.7309651 0-1.3235294.5925643-1.3235294 1.32352941l-.0006273 5.68747054-10.0382243-6.14305184c-.6323461-.39013826-1.4320422-.40536256-2.0829759-.03721153-.6508714.3681158-1.0498815 1.06120497-1.0414637 1.80888777l-.0002119 13.3974161c-.0082059.7327827.3908042 1.4258719 1.0416756 1.7939877.6509337.368151 1.4506298.3529267 2.0870795-.039733l10.0341207-6.1412952.0006273 5.6882353c0 .7309652.5925643 1.3235295 1.3235294 1.3235295s1.3235294-.5925643 1.3235294-1.3235295v-16.01470584c0-.73096511-.5925643-1.32352941-1.3235294-1.32352941zm-11.8398456 3.67786835 9.2350588 5.652-9.2371765 5.652z" fill="#fff" transform="translate(1 1)"/></g></svg>