<svg height="38" viewBox="0 0 38 38" width="38" xmlns="http://www.w3.org/2000/svg"><g fill="none" fill-rule="evenodd"><circle cx="19" cy="19" fill="#b3c4ce" r="19"/><path d="m18 0c9.9411255 0 18 8.0588745 18 18-.0106838 9.9366968-8.0633032 17.9893162-18 18-9.9411255 0-18-8.0588745-18-18s8.0588745-18 18-18zm-6.3529412 15.8823529c-1.1695442 0-2.11764704.9481029-2.11764704 2.1176471s.94810284 2.1176471 2.11764704 2.1176471 2.1176471-.9481029 2.1176471-2.1176471-.9481029-2.1176471-2.1176471-2.1176471zm6.3529412 0c-1.1695442 0-2.1176471.9481029-2.1176471 2.1176471s.9481029 2.1176471 2.1176471 2.1176471 2.1176471-.9481029 2.1176471-2.1176471-.9481029-2.1176471-2.1176471-2.1176471zm6.3529412 0c-1.1695442 0-2.1176471.9481029-2.1176471 2.1176471s.9481029 2.1176471 2.1176471 2.1176471 2.117647-.9481029 2.117647-2.1176471-.9481028-2.1176471-2.117647-2.1176471z" fill="#fff" transform="translate(1 1)"/></g></svg>