<svg height="18.25" viewBox="0 0 18.7514163 18.25" width="18.751416" xmlns="http://www.w3.org/2000/svg"><g fill="none" fill-rule="evenodd" stroke="#fff" stroke-linejoin="round" stroke-width=".75" transform="translate(.375709 .375)"><path d="m9.18142942 4.21429907c-.7760713-.0745024-1.51659075.33307319-1.85011262 1.01828619-.33352186.68521301-.18809111 1.50023347.36334396 2.03624583.55143507.53601235 1.38990617.67737565 2.09483485.35318183.70492869-.32419381 1.12423149-1.04400218 1.04758539-1.79836806-.0879241-.85090848-.7802599-1.52388081-1.65565158-1.60934579zm4.44487648 1.78570093c-.001179.19504379-.0159231.38978694-.0441315.5828972l1.304042.9942056c.1172596.09448066.1471387.2574796.0706681.38551402l-1.2336624 2.07476638c-.0773427.1267662-.2372885.181075-.3790115.1286916l-1.2951003-.50691592c-.1450718-.05614599-.3094554-.03771319-.4375651.04906542-.1976543.13230209-.4053511.24983571-.621302.3515888-.137875.0651377-.2332823.1927851-.254405.3403738l-.1941208 1.3427103c-.0262936.1462406-.1553606.2539599-.3080551.2571028h-2.46732465c-.14999706-.0025225-.27811896-.105858-.30834347-.2486916l-.19383239-1.3407477c-.02210758-.1492317-.11954073-.2778243-.25959694-.3426168-.21569252-.10120256-.42268759-.21905701-.61899448-.35242988-.12768285-.0863537-.29152737-.1043774-.43583442-.04794393l-1.29481185.50663551c-.14165336.0524333-.30157832-.0017502-.37901153-.1284112l-1.23366235-2.07476636c-.0765959-.1280129-.04670143-.29109562.07066806-.38551402l1.10213323-.8411215c.12267586-.09465846.18779288-.24319263.17306463-.39476635-.01038388-.11691589-.01672958-.2335514-.01672958-.35046729s.00605726-.23186916.01672958-.34626168c.01311607-.15063382-.05270118-.29755833-.17508372-.39084113l-1.10155634-.84112149c-.1154016-.09485238-.14421073-.25649218-.06836053-.3835514l1.23366235-2.07476636c.07734274-.12676622.23728849-.18107505.37901153-.12869159l1.29510029.50691589c.14507178.05614599.30945536.03771319.43756506-.04906542.19765433-.13230209.40535116-.24983571.62130201-.35158878.137875-.06513773.23328228-.19278516.254405-.34037384l.19412083-1.34271028c.02629355-.14624057.15536054-.25395991.30805503-.2571028h2.46732465c.1499971.00252251.278119.10585805.3083435.24869159l.1938324 1.34074766c.0221076.14923178.1195407.27782435.2595969.34261682.2156926.10120259.4226876.21905704.6189945.35242991.1276829.0863537.2915274.1043774.4358344.04794393l1.2948119-.50663552c.1416534-.05243326.3015783.00175021.3790115.12841122l1.2336624 2.07476635c.0765959.1280129.0467014.29109562-.0706681.38551402l-1.1021332.8411215c-.1232152.09435455-.1888968.24293832-.1745068.39476635.0095185.11607477.0158642.23271028.0158642.34962617z" stroke-linecap="round"/><path d="m3.23655182 11.0123516-3.23655182 3.9876484h18l-3.2365518-4" stroke-linecap="round"/><path d="m0 17.5h18z"/></g></svg>