<svg height="17" viewBox="0 0 16.9998665 17" width="16.999867" xmlns="http://www.w3.org/2000/svg"><path d="m8.50091411 5c.36114809 0 .65391647.29273531.65391647.65384263 0 .36110731-.29276838.65384262-.65391647.65384262-3.37329581-.00000277-6.29346037 2.3439019-7.02290094 5.63701465-.72944057 3.2931127.92781365 6.650709 3.98564257 8.0749101s6.69471926.5323824 8.74660306-2.1447949c.2199392-.2865386.6305468-.3405483.9171178-.1206339.286571.2199143.3405868.6304756.1206476.9170143-1.603211 2.1053021-4.100696 3.3374459-6.74711009 3.3287589-4.69492522 0-8.50091411-3.8056052-8.50091411-8.5000003 0-4.69439501 3.80598889-8.4999541 8.50091411-8.4999541zm7.52925049 10.4409898.099993.0270306c.3077318.1093192.4829029.4256786.4237623.7372607l-.0248733.0931195c-.0799855.2287826-.2785258.3917517-.5124864.4296584l-.1021951.0084161c-.2116744-.0010879-.4099475-.1037566-.5329824-.275986-.1025291-.1435245-.1424126-.3208011-.113726-.491973l.0254878-.1016517c.0577149-.1641565.17849-.2985392.335587-.3733973.1256776-.0598865.2663071-.0777249.4014331-.0524773zm-7.53775141-7.55885151c.3611481 0 .65391647.29273532.65391647.65384263v4.49909108l3.06621434 1.067725c.3019667.1044988.4841782.4119023.4308844.726932s-.3264827.5454102-.6460229.5447932c-.0730467 0-.1455615-.0124235-.2144846-.0366165l-3.50564623-1.2207241c-.26265783-.0914984-.43868618-.3391169-.43877795-.6172275v-4.96397318c0-.36110731.29276838-.65384263.65391647-.65384263zm7.86661511 5.10128021c.1734408.0034337.3384095.0756359.4585973.2007152.0961503.1000635.1573365.2274074.1761712.3631334l.0060697.1030708c-.0071221.3559903-.2978148.640837-.6539165.6407658h-.0130783c-.1726245-.0024087-.337199-.0733852-.4574207-.1972733-.1202218-.123888-.1862132-.2905087-.1834175-.4631077.0034341-.1799596.0756445-.3449097.200738-.465084.1000747-.0961394.2274331-.1573187.3631744-.1761513zm.2323897-2.0839841.0357161.089764c.0508133.1664752.033145.3463375-.0490911.4997458-.065789.1227267-.1685569.2204185-.2924244.2801133l-.0966086.0374442-.0937765.0206256-.0958592.0055281c-.2870384.0017379-.541652-.1838969-.6277598-.4576898-.0508133-.1664751-.0331451-.3463374.0490911-.4997458.0657889-.1227266.1685569-.2204184.2924243-.2801133l.0966086-.0374442c.3133271-.0945784.6428641.0557614.7816795.3417721zm-1.5841744-2.58693595c.1364626.0225776.2612297.08790097.3570527.18520987l.0661706.07881084c.1891967.26509328.1536821.62290411-.0692134.84623022l-.0811874.06914946c-.0839495.05701042-.1792051.09430918-.2786684.1096976l-.1006031.00800354c-.177313.00094476-.3457731-.07003768-.468418-.19402313l-.0677935-.08060024c-.1860133-.26507018-.1478061-.62055605.0756478-.84075998l.0812921-.06808127c.1403476-.10096477.3151423-.14185891.4857206-.11363691zm-1.5477229-1.70650413.0876668.05476595c.140646.10240975.2343592.25692454.2601684.428967.0206475.13763396-.0035426.27729313-.0675004.39890309l-.0553455.08750958c-.1029125.13720116-.2546571.22735822-.4214916.25359943l-.1016416.00793984c-.246526.00063849-.4724602-.13740625-.5843651-.35704661-.0959185-.18826316-.0940853-.40904474-.0000076-.59361566l.0547003-.08894972c.1030798-.13974455.2575196-.23275154.4292599-.25850968.1373923-.02060652.2768286.00318033.3985564.06643678zm-2.3931162-1.20414853.0939879.02315192c.3103675.10355082.4926972.41634295.441107.72994517l-.0226005.09389653c-.0776347.23462794-.2787653.40297666-.5170671.44235427l-.1041535.00879715c-.2093562-.00015417-.4059815-.10052934-.528888-.26999183-.1024221-.14121874-.1433304-.31618533-.1165633-.48575847l.0242306-.10078354c.1019669-.31170375.4159487-.49479739.7299469-.4416112z" fill="#b3c4ce" transform="translate(0 -5)"/></svg>