<svg height="500" viewBox="0 0 500 500" width="500" xmlns="http://www.w3.org/2000/svg"><path d="m250 0c138.071187 0 250 111.928813 250 250-.148386 138.009677-111.990323 249.851614-250 250-138.071187 0-250-111.928813-250-250s111.928813-250 250-250zm0 115c-10.075465 0-18.243243 8.167778-18.243243 18.243243s8.167778 18.243243 18.243243 18.243243c54.407511 0 98.513514 44.106003 98.513514 98.513514s-44.106003 98.513514-98.513514 98.513514-98.513514-44.106003-98.513514-98.513514c0-26.643751 10.602037-51.560653 29.147534-69.951944 7.154111-7.094624 7.202335-18.645506.10771-25.799617-7.094624-7.154111-18.645506-7.202335-25.799617-.10771-25.385338 25.174258-39.942113 59.385585-39.942113 95.859271 0 74.558441 60.441559 135 135 135s135-60.441559 135-135-60.441559-135-135-135z" fill="#262262" fill-rule="evenodd"/></svg>