<svg height="17" viewBox="0 0 17 17" width="17" xmlns="http://www.w3.org/2000/svg"><path d="m8.5 0c4.6944204 0 8.5 3.80557963 8.5 8.5-.0050451 4.692329-3.807671 8.4949549-8.5 8.5-4.69442037 0-8.5-3.8055796-8.5-8.5 0-4.69442037 3.80557963-8.5 8.5-8.5zm-.005 3.87c-.34517797 0-.625.27982203-.625.625s.27982203.625.625.625c1.863961 0 3.375 1.51103897 3.375 3.375 0 1.863961-1.511039 3.375-3.375 3.375-1.86396103 0-3.375-1.511039-3.375-3.375 0-.91279518.36321791-1.76642978.99857292-2.39650179.24509454-.24305657.24674664-.63878123.00369007-.88387577s-.63878124-.24674664-.88387577-.00369007c-.8696829.86245145-1.36838722 2.03450615-1.36838722 3.28406763 0 2.554317 2.07068303 4.625 4.625 4.625 2.554317 0 4.625-2.070683 4.625-4.625 0-2.55431697-2.070683-4.625-4.625-4.625z" fill="#f29008" fill-rule="evenodd"/></svg>