<svg height="30.346457" viewBox="0 0 186.824041 30.3464567" width="186.824041" xmlns="http://www.w3.org/2000/svg"><g fill="none" fill-rule="evenodd"><path d="m0 30.3464567h64.1828163v-30.3464567h-64.1828163z" fill="#fff"/><path d="m67.5188571 30.3464567h76.8939189v-30.3464567h-76.8939189z" fill="#a6b0b5"/><path d="m147.748816 30.3464567h39.075225v-30.3464567h-39.075225z" fill="#2e5e98"/><path d="m13.5582531 10.1901505v11.6037264h-1.9778368v-11.6037264h-3.66791834v-1.79233761h9.36546934v1.79233761zm13.6514857 6.8968013h-2.4209796c-.6714286 0-1.2143265.1593189-1.6210204.4779567-.4086123.3205344-.6157959.7415915-.6157959 1.2631712 0 .4836467.1649795.8819439.491102 1.1986851.3261224.3148445.7443265.4722667 1.2507755.4722667.8172245 0 1.5097551-.2636348 2.0737551-.7946978.5620816-.5291664.8421633-1.1816152.8421633-1.9554498zm0-1.4983563v-.8440109c0-1.0336761-.636898-1.5495659-1.9145306-1.5495659-1.2104898 0-1.9490613.383124-2.2157143 1.1512687h-1.9797551c.0901632-1.7449213 1.4924898-2.6173819 4.2050612-2.6173819 1.3466939 0 2.3116327.284498 2.8948163.8553908.5831837.5708927.8766939 1.5116328.8766939 2.8222204v6.3860325h-1.8665714v-.9881565c-.8383266.7757313-1.822449 1.1626486-2.9562041 1.1626486-1.091551 0-1.9663265-.2750147-2.6224082-.8250443-.6560816-.5500295-.9841224-1.2802411-.9841224-2.1906348 0-1.0260896.4009388-1.8416506 1.2008979-2.4504764.7999592-.6069291 1.8780817-.9122903 3.2305307-.9122903zm10.3355877-8.21004422v10.80902852c0 1.3295542.730898 1.9952796 2.1946123 1.9952796h1.5864898v1.6102588h-2.1332245c-1.2296735 0-2.1236327-.3262244-2.6780408-.9786732-.5582449-.6505522-.8364082-1.6937116-.8364082-3.1256851v-10.31020862zm11.5102041 0v8.09871062l3.8635918-3.5751919h2.6492654l-4.7824898 4.2788504 5.2352244 5.6121978h-2.6185714l-4.3470204-4.6866309v4.6866309h-1.8665714v-14.41456692zm32.0221551 2.81159922v11.6037264h-1.9778367v-11.6037264h-3.6679184v-1.79233761h9.3654694v1.79233761zm9.6760531-2.81159922v5.35804622c.7961224-.6714153 1.7533877-1.0090196 2.8737143-1.0090196.9342449 0 1.7073469.3034645 2.3193061.9066003.3702449.3736408.6234694.7738347.7615918 1.1986851.1381225.4229537.2052653 1.0166063.2052653 1.7771644v6.1830905h-1.864653v-6.3974124c0-1.3105876-.6100409-1.9668297-1.8339592-1.9668297-.7136327 0-1.3064082.2219084-1.7821633.6638287-.266653.2503583-.4488979.5215797-.5409796.8136644-.094.2920846-.1381224.7302116-.1381224 1.3143809v5.5723681h-1.8665715v-14.41456692zm13.6821792 2.47456388h2.823837v-2.47513288h-2.823837zm-2.371102 2.04838584h5.193021v9.8910482h-1.977837v-8.0266378h-3.215184zm11.716813.0001896h1.864653v1.1304056c.872857-.8686674 1.960571-1.303001 3.266979-1.303001 1.133755 0 2.037306.3300177 2.71449.9881565.675265.6581388 1.014816 1.538186 1.014816 2.6382451v6.4372421h-1.864653v-6.5794912c0-.5860659-.182245-1.0412628-.546734-1.3712805-.362572-.328121-.876694-.4931299-1.534694-.4931299-.913143 0-1.649796.2807047-2.209959.8440108-.560164.5652028-.840245 1.3048977-.840245 2.2209813v5.3789095h-1.864653zm15.498681-4.52313932v8.09871062l3.863592-3.5751919h2.649265l-4.782489 4.2788504 5.235224 5.6121978h-2.618571l-4.347021-4.6866309v4.6866309h-1.866571v-14.41456692zm29.504298 12.61160812c1.312163 0 2.367265-.4267471 3.169143-1.2783445.798041-.8534941 1.19898-1.9782097 1.19898-3.37794 0-1.3712805-.433551-2.5699655-1.306409-3.5960551-.872857-1.0241929-1.893428-1.538186-3.061714-1.538186zm-1.977837 1.8037175v-13.39606401h1.442613c1.847387 0 3.405102.60503248 4.678898 1.81320081.69253.6657254 1.237347 1.4528366 1.626775 2.3632303.393265.9103937.587021 1.8397539.587021 2.791874 0 1.8795837-.661837 3.4670827-1.989347 4.7568071-1.145266 1.1133356-2.697225 1.6709518-4.646286 1.6709518zm16.64107-8.629015c-.947674 0-1.697755.3300177-2.248327.9881565-.548653.6581388-.824898 1.5476693-.824898 2.6685915 0 1.1417855.27049 2.0445926.805715 2.710318.537142.6657253 1.264204.9976397 2.18502.9976397.913143 0 1.640204-.3262244 2.179265-.9767766.539062-.6524488.807633-1.532496.807633-2.638245 0-1.1759252-.255143-2.0939055-.767347-2.7558376-.510286-.6638288-1.223918-.9938465-2.137061-.9938465m-.115102-1.4357667c1.599918 0 2.816163.4741634 3.648734 1.4262834.377919.4419203.684858.9976398.920817 1.6690552.237877.673312.356816 1.3390374.356816 1.9971761 0 1.494563-.460408 2.7254912-1.381224 3.6927845-.918898.9672933-2.092939 1.4528366-3.512531 1.4528366-1.471388 0-2.65502-.4722667-3.550898-1.4168002-.895877-.9445335-1.344775-2.1906348-1.344775-3.7383041 0-1.5287028.445061-2.7577343 1.335183-3.6870945.888204-.9312569 2.066082-1.395937 3.527878-1.395937" fill="#262262"/></g></svg>