<svg height="17" viewBox="0 0 17 17" width="17" xmlns="http://www.w3.org/2000/svg"><path d="m8.5 0c4.6944204 0 8.5 3.80557963 8.5 8.5-.0050451 4.692329-3.807671 8.4949549-8.5 8.5-4.69442037 0-8.5-3.8055796-8.5-8.5 0-4.69442037 3.80557963-8.5 8.5-8.5zm-3 7.5c-.55228475 0-1 .44771525-1 1s.44771525 1 1 1 1-.44771525 1-1-.44771525-1-1-1zm3 0c-.55228475 0-1 .44771525-1 1s.44771525 1 1 1 1-.44771525 1-1-.44771525-1-1-1zm3 0c-.5522847 0-1 .44771525-1 1s.4477153 1 1 1 1-.44771525 1-1-.4477153-1-1-1z" fill="#707681" fill-rule="evenodd"/></svg>