<?xml version="1.0" encoding="UTF-8"?>
<svg width="30.1379945px" height="30px" viewBox="0 0 30.1379945 30" version="1.1" xmlns="http://www.w3.org/2000/svg" xmlns:xlink="http://www.w3.org/1999/xlink">
    <title>89DF3925-E1E9-4B70-94B7-21D81E96C62A</title>
    <g id="Page-1" stroke="none" stroke-width="1" fill="none" fill-rule="evenodd" stroke-linejoin="round">
        <g id="Runs-c" transform="translate(-315.000000, -162.000000)" stroke="#F29008" stroke-width="1.5">
            <g id="Expanded-Run" transform="translate(288.000000, 137.000000)">
                <g id="Icon" transform="translate(7.000000, 7.000000)">
                    <g id="ico-run" transform="translate(20.000000, 18.000000)">
                        <path d="M15.3727705,7.02383178 C14.0733687,6.89966112 12.8334925,7.57895376 12.2750659,8.72097544 C11.7166392,9.86299711 11.9601387,11.2213646 12.8834246,12.1147185 C13.8067106,13.0080724 15.2105904,13.2436779 16.3908758,12.7033549 C17.5711612,12.1630318 18.2732137,10.9633512 18.1448827,9.70607477 C17.9976685,8.28789397 16.8384678,7.16627341 15.3727705,7.02383178 L15.3727705,7.02383178 Z M22.814974,10 C22.813,10.325073 22.7883134,10.6496449 22.7410832,10.9714953 L24.9244838,12.6285047 C25.1208154,12.7859724 25.170843,13.0576373 25.0428056,13.271028 L22.977244,16.728972 C22.8477465,16.940249 22.579944,17.0307637 22.3426525,16.9434579 L20.1742233,16.0985981 C19.9313248,16.0050215 19.656092,16.0357428 19.4415936,16.1803738 C19.1106545,16.4008773 18.7629008,16.5967667 18.4013272,16.7663551 C18.1704785,16.874918 18.0107349,17.0876637 17.9753685,17.3336449 L17.6503456,19.5714953 C17.6063214,19.8152296 17.3902203,19.9947619 17.1345589,20 L13.0034356,20 C12.7522906,19.9957958 12.5377719,19.8235699 12.487166,19.585514 L12.162626,17.3509346 C12.1256106,17.102215 11.962475,16.887894 11.7279743,16.7799065 C11.3668332,16.6112356 11.0202545,16.4148115 10.6915714,16.1925234 C10.4777877,16.0486005 10.2034575,16.018561 9.96183941,16.1126168 L7.79389317,16.9570093 C7.55671826,17.0443981 7.28895061,16.9540923 7.15930164,16.7429907 L5.09374003,13.2850467 C4.96549298,13.0716919 5.01554628,12.7998874 5.21206189,12.6425234 L7.05739996,11.2406542 C7.26280019,11.0828901 7.37182777,10.8353332 7.34716778,10.5827103 C7.32978171,10.3878505 7.31915689,10.1934579 7.31915689,9.99859813 C7.31915689,9.80373832 7.32929876,9.61214953 7.34716778,9.42149533 C7.36912845,9.17043897 7.25892844,8.92556478 7.05401933,8.77009346 L5.20964715,7.3682243 C5.01642645,7.210137 4.96819037,6.94073734 5.09518887,6.72897196 L7.16075048,3.27102804 C7.29024799,3.059751 7.55805044,2.96923629 7.795342,3.05654206 L9.96377119,3.90140187 C10.2066697,3.99497852 10.4819025,3.96425719 10.6964008,3.81962617 C11.02734,3.59912268 11.3750937,3.40323331 11.7366673,3.23364486 C11.967516,3.12508198 12.1272595,2.91233627 12.162626,2.66635514 L12.4876489,0.428504673 C12.5316731,0.184770379 12.7477742,0.00523814619 13.0034356,0 L17.1345589,0 C17.3857039,0.00420418435 17.6002226,0.176430079 17.6508285,0.414485981 L17.9753685,2.64906542 C18.0123839,2.89778504 18.1755195,3.112106 18.4100202,3.22009346 C18.7711613,3.38876443 19.11774,3.58518852 19.4464231,3.80747664 C19.6602067,3.95139947 19.934537,3.98143897 20.1761551,3.88738318 L22.3441013,3.04299065 C22.5812762,2.95560188 22.8490439,3.04590766 22.9786928,3.25700935 L25.0442545,6.71495327 C25.1725015,6.9283081 25.1224482,7.20011263 24.9259326,7.35747664 L23.0805945,8.75934579 C22.8742913,8.91660338 22.7643185,9.16424299 22.788412,9.41728972 C22.8043492,9.61074766 22.814974,9.80514019 22.814974,10 Z" id="Shape" stroke-linecap="round"></path>
                        <polyline id="Path" stroke-linecap="round" points="5.4190656 18.3539194 0 25 30.1379945 25 24.7189289 18.3333333"></polyline>
                        <path d="M0,29.1666667 L30.1379945,29.1666667 L0,29.1666667 Z" id="Path-3"></path>
                    </g>
                </g>
            </g>
        </g>
    </g>
</svg>