<svg height="17" viewBox="0 0 17 17" width="17" xmlns="http://www.w3.org/2000/svg"><path d="m8.5 0c4.6944204 0 8.5 3.80557963 8.5 8.5-.0050451 4.692329-3.807671 8.4949549-8.5 8.5-4.69442037 0-8.5-3.8055796-8.5-8.5 0-4.69442037 3.80557963-8.5 8.5-8.5zm3.1222656 4.09375c-.3451779 0-.625.27982203-.625.625l-.0001573 2.685-4.74041151-2.90013561c-.29860784-.18423196-.67624211-.19142121-.98362748-.01757211-.30735594.17383246-.49577739.50112457-.49180229.85419702l-.00010008 6.3265576c-.00387502.3460362.18454643.6733284.49190237.8471608.30738537.1738491.68501964.1666599.98556533-.0187628l4.73847366-2.9004449.0001573 2.6865c0 .345178.2798221.625.625.625.345178 0 .625-.279822.625-.625v-7.5625c0-.34517797-.279822-.625-.625-.625zm-5.59103819 1.73677119 4.36099999 2.669-4.36199999 2.66900001z" fill="#dce1e9" fill-rule="evenodd"/></svg>